# Blender 3.6.4
# www.blender.org
mtllib mesh_bone.mtl
o Bone
v -0.350000 -0.350000 0.200000
v -0.350000 0.350000 0.200000
v 0.350000 -0.350000 0.200000
v 0.350000 0.350000 0.200000
v 0.000000 0.000000 2.000000
v -0.280000 -0.280000 0.000000
v -0.280000 0.280000 0.000000
v 0.280000 -0.280000 0.000000
v 0.280000 0.280000 0.000000
vn -0.9816 -0.0000 0.1909
vn -0.0000 0.9816 0.1909
vn 0.9816 -0.0000 0.1909
vn -0.0000 -0.9816 0.1909
vn 0.9439 -0.0000 -0.3304
vn -0.0000 -0.0000 -1.0000
vn -0.0000 0.9439 -0.3304
vn -0.0000 -0.9439 -0.3304
vn -0.9439 -0.0000 -0.3304
vt 0.375000 0.000000
vt 0.625000 0.250000
vt 0.375000 0.250000
vt 0.625000 0.500000
vt 0.375000 0.500000
vt 0.625000 0.750000
vt 0.375000 0.750000
vt 0.625000 1.000000
vt 0.375000 1.000000
vt 0.125000 0.500000
vt 0.125000 0.750000
s 0
f 1/1/1 5/2/1 2/3/1
f 2/3/2 5/4/2 4/5/2
f 4/5/3 5/6/3 3/7/3
f 3/7/4 5/8/4 1/9/4
f 4/5/5 3/7/5 8/7/5 9/5/5
f 7/10/6 9/5/6 8/7/6 6/11/6
f 2/3/7 4/5/7 9/5/7 7/3/7
f 3/7/8 1/9/8 6/9/8 8/7/8
f 1/1/9 2/3/9 7/3/9 6/1/9
