# Blender 3.4.1
# www.blender.org
mtllib unknown_spawnable.mtl
o Question_Mark
v -0.148673 -0.158701 1.200924
v -0.148673 0.158701 1.200924
v -0.148673 -0.158701 0.883522
v -0.148673 0.158701 0.883522
v 0.168729 -0.158701 1.200924
v 0.168729 0.158701 1.200924
v 0.168729 -0.158701 0.883522
v 0.168729 0.158701 0.883522
v -0.148673 -0.158701 0.713656
v -0.148673 0.158701 0.713656
v -0.148673 -0.158701 0.303908
v -0.148673 0.158701 0.303908
v 0.168729 -0.158701 0.713656
v 0.168729 0.158701 0.713656
v 0.168729 -0.158701 0.303908
v 0.168729 0.158701 0.303908
v 0.221442 0.158701 -0.253634
v 0.221442 -0.158701 -0.253634
v 0.538844 -0.158701 -0.253634
v 0.538844 0.158701 -0.253634
v 0.221442 0.158701 -0.655747
v 0.221442 -0.158701 -0.655747
v 0.538844 -0.158701 -0.655747
v 0.538844 0.158701 -0.655747
v 0.221442 0.158701 -0.922774
v 0.221442 -0.158701 -0.922774
v 0.502756 -0.158701 -0.853390
v 0.502756 0.158701 -0.853390
v -0.147670 0.158701 -0.655747
v -0.147670 -0.158701 -0.655747
v -0.147670 0.158701 -0.922774
v -0.147670 -0.158701 -0.922774
v -0.458819 0.158701 -0.655747
v -0.458819 -0.158701 -0.655747
v -0.377906 0.158701 -0.841813
v -0.377906 -0.158701 -0.841813
v -0.147670 0.158701 -0.274731
v -0.147670 -0.158701 -0.274731
v -0.458819 0.158701 -0.274731
v -0.458819 -0.158701 -0.274731
v -0.107839 -0.117867 0.751251
v -0.107839 0.117867 0.751251
v 0.127894 0.117867 0.751251
v 0.127894 -0.117867 0.751251
v -0.198785 0.106559 -0.243027
v -0.198785 -0.106559 -0.243027
v -0.407704 0.106559 -0.243027
v -0.407704 -0.106559 -0.243027
vn -1.0000 -0.0000 -0.0000
vn -0.0000 -0.0000 -1.0000
vn 1.0000 -0.0000 -0.0000
vn -0.0000 -0.0000 1.0000
vn -0.0000 -1.0000 -0.0000
vn -0.0000 1.0000 -0.0000
vn 0.8331 -0.0000 0.5531
vn -0.6773 -0.0000 0.7357
vn -0.8331 -0.0000 -0.5531
vn 0.9837 -0.0000 -0.1796
vn 0.2395 -0.0000 -0.9709
vn -0.9170 -0.0000 -0.3988
vn -0.3317 -0.0000 -0.9434
vn -0.0000 -0.5195 0.8544
vn -0.0000 -0.6773 0.7357
vn -0.0000 0.6773 0.7357
vn 0.6773 -0.0000 0.7357
vn 0.5271 -0.0000 0.8498
vn -0.0000 0.5195 0.8544
vn -0.5271 -0.0000 0.8498
vt 0.375000 0.000000
vt 0.375000 1.000000
vt 0.125000 0.750000
vt 0.625000 0.000000
vt 0.625000 1.000000
vt 0.875000 0.750000
vt 0.375000 0.250000
vt 0.125000 0.500000
vt 0.625000 0.250000
vt 0.875000 0.500000
vt 0.375000 0.750000
vt 0.625000 0.750000
vt 0.375000 0.500000
vt 0.625000 0.500000
vt 0.375000 0.000000
vt 0.125000 0.750000
vt 0.625000 0.000000
vt 0.875000 0.750000
vt 0.125000 0.500000
vt 0.375000 0.250000
vt 0.875000 0.500000
vt 0.625000 0.250000
vt 0.375000 0.750000
vt 0.625000 0.750000
vt 0.375000 0.500000
vt 0.625000 0.500000
vt 0.875000 0.500000
vt 0.625000 0.250000
vt 0.375000 0.250000
vt 0.125000 0.500000
vt 0.375000 0.500000
vt 0.625000 0.500000
vt 0.625000 0.250000
vt 0.875000 0.500000
vt 0.375000 0.250000
vt 0.125000 0.500000
vt 0.375000 0.500000
vt 0.625000 0.500000
vt 0.625000 0.250000
vt 0.875000 0.500000
vt 0.125000 0.500000
vt 0.375000 0.250000
vt 0.375000 0.500000
vt 0.625000 0.500000
vt 0.625000 0.250000
vt 0.875000 0.500000
vt 0.375000 0.250000
vt 0.125000 0.500000
vt 0.875000 0.500000
vt 0.625000 0.250000
vt 0.125000 0.500000
vt 0.375000 0.250000
vt 0.875000 0.500000
vt 0.625000 0.250000
vt 0.125000 0.500000
vt 0.375000 0.250000
vt 0.875000 0.500000
vt 0.625000 0.250000
vt 0.125000 0.500000
vt 0.375000 0.250000
vt 0.625000 0.250000
vt 0.875000 0.500000
vt 0.125000 0.500000
vt 0.375000 0.250000
vt 0.875000 0.500000
vt 0.625000 0.250000
vt 0.125000 0.500000
vt 0.375000 0.250000
vt 0.375000 0.000000
vt 0.375000 1.000000
vt 0.125000 0.750000
vt 0.625000 0.000000
vt 0.625000 1.000000
vt 0.875000 0.750000
vt 0.625000 0.750000
vt 0.375000 0.750000
vt 0.625000 0.250000
vt 0.875000 0.500000
vt 0.125000 0.500000
vt 0.375000 0.250000
vt 0.875000 0.500000
vt 0.625000 0.250000
vt 0.125000 0.500000
vt 0.375000 0.250000
s 0
f 1/1/1 2/4/1 4/9/1 3/7/1
f 3/7/2 4/9/2 8/14/2 7/13/2
f 7/13/3 8/14/3 6/12/3 5/11/3
f 5/11/4 6/12/4 2/5/4 1/2/4
f 3/8/5 7/13/5 5/11/5 1/3/5
f 8/14/6 4/10/6 2/6/6 6/12/6
f 9/15/1 10/17/1 12/22/1 11/20/1
f 16/26/7 15/25/7 19/31/7 20/32/7
f 15/25/3 16/26/3 14/24/3 13/23/3
f 10/17/8 9/15/8 41/69/8 42/72/8
f 11/19/5 15/25/5 13/23/5 9/16/5
f 16/26/6 12/21/6 10/18/6 14/24/6
f 17/27/6 20/32/6 24/38/6 21/34/6
f 15/25/5 11/19/5 18/30/5 19/31/5
f 12/21/6 16/26/6 20/32/6 17/27/6
f 11/20/9 12/22/9 17/28/9 18/29/9
f 24/38/10 23/37/10 27/43/10 28/44/10
f 18/29/1 17/28/1 21/33/1 22/35/1
f 20/32/3 19/31/3 23/37/3 24/38/3
f 19/31/5 18/30/5 22/36/5 23/37/5
f 26/42/11 25/39/11 28/44/11 27/43/11
f 23/37/5 22/36/5 26/41/5 27/43/5
f 21/34/6 24/38/6 28/44/6 25/40/6
f 22/35/4 21/33/4 29/45/4 30/47/4
f 32/51/5 30/48/5 34/55/5 36/59/5
f 26/41/5 22/36/5 30/48/5 32/51/5
f 25/39/2 26/42/2 32/52/2 31/50/2
f 21/34/6 25/40/6 31/49/6 29/46/6
f 34/56/12 33/54/12 35/58/12 36/60/12
f 30/47/3 29/45/3 37/61/3 38/64/3
f 29/46/6 31/49/6 35/57/6 33/53/6
f 31/50/13 32/52/13 36/60/13 35/58/13
f 40/67/14 38/63/14 46/79/14 48/83/14
f 29/46/6 33/53/6 39/65/6 37/62/6
f 34/55/5 30/48/5 38/63/5 40/67/5
f 33/54/1 34/56/1 40/68/1 39/66/1
f 44/76/4 43/75/4 42/73/4 41/70/4
f 9/16/15 13/23/15 44/76/15 41/71/15
f 14/24/16 10/18/16 42/74/16 43/75/16
f 13/23/17 14/24/17 43/75/17 44/76/17
f 46/80/4 45/77/4 47/82/4 48/84/4
f 38/64/18 37/61/18 45/77/18 46/80/18
f 37/62/19 39/65/19 47/81/19 45/78/19
f 39/66/20 40/68/20 48/84/20 47/82/20
